<?xml version="1.0" encoding="UTF-8" standalone="no"?>
<svg width="460px" height="461px" viewBox="0 0 460 461" version="1.1" xmlns="http://www.w3.org/2000/svg" xmlns:xlink="http://www.w3.org/1999/xlink">
    <!-- Generator: Sketch 42 (36781) - http://www.bohemiancoding.com/sketch -->
    <title>Group</title>
    <desc>Created with Sketch.</desc>
    <defs></defs>
    <g id="Page-1" stroke="none" stroke-width="1" fill="none" fill-rule="evenodd">
        <g id="600-x-600-copy" transform="translate(-60.000000, -60.000000)" fill="#FFFFFF">
            <g id="Group" transform="translate(60.000000, 60.000000)">
                <path d="M160,40 C160,17.90861 177.90861,0 200,0 C222.09139,0 240,17.90861 240,40 L240,200 C240,222.09139 222.09139,240 200,240 C177.90861,240 160,222.09139 160,200 L160,40 Z" id="Oval-3"></path>
                <path d="M80,283.431458 L80,140 C80,117.90861 62.09139,100 40,100 C17.90861,100 9.9475983e-14,117.90861 9.9475983e-14,140 L9.9475983e-14,299.999985 C-6.12270812e-09,305.118446 0.976310716,310.236893 2.92893217,315.052038 C5.16750841,320.355339 8.09644058,324.664983 11.7157287,328.284271 L131.923882,448.492424 C147.544853,464.113396 172.871452,464.113396 188.492424,448.492424 C204.113396,432.871452 204.113396,407.544853 188.492424,391.923882 L80,283.431458 Z" id="Combined-Shape"></path>
                <path d="M300,203.431458 L300,60 C300,37.90861 282.09139,20 260,20 C237.90861,20 220,37.90861 220,60 L220,219.999985 C220,225.118446 220.976311,230.236893 222.928932,235.052038 C225.167508,240.355339 228.096441,244.664983 231.715729,248.284271 L351.923882,368.492424 C367.544853,384.113396 392.871452,384.113396 408.492424,368.492424 C424.113396,352.871452 424.113396,327.544853 408.492424,311.923882 L300,203.431458 Z" id="Combined-Shape" transform="translate(320.104076, 200.104076) scale(-1, 1) translate(-320.104076, -200.104076) "></path>
                <path d="M445.853721,314.146279 C453.666495,306.333505 460,308.945138 460,320.001105 L460,439.998895 C460,451.0452 451.054862,460 439.998895,460 L320.001105,460 C308.9548,460 306.333818,453.666182 314.146279,445.853721 L445.853721,314.146279 Z" id="Triangle-2"></path>
            </g>
        </g>
    </g>
</svg>